<svg width="155" height="155" viewBox="0 0 155 155" fill="none" xmlns="http://www.w3.org/2000/svg">
<rect x="0.5" y="0.5" width="154" height="154" fill="#F6A278" stroke="#F6A278"/>
<path d="M0 0H155L105 18.5L65.5 84L18 116.5L0 155V0Z" fill="#39E9FF" fill-opacity="0.66"/>
<path d="M14.5687 42.348V71H22.0167V59.752H30.1867V53.444H22.0167V48.656H31.0227V42.348H14.5687ZM35.1644 42.348V71H51.4664V64.692H42.6124V59.752H51.0104V53.444H42.6124V48.656H51.4664V42.348H35.1644ZM65.747 41.588C60.047 41.588 55.905 45.35 55.905 51.202C55.905 57.396 59.857 58.08 63.657 59.296C65.291 59.79 68.179 60.436 68.179 62.564C68.179 64.35 66.659 65.452 64.531 65.452C62.441 65.452 60.351 64.578 57.957 62.488L54.765 68.492C57.691 70.544 61.263 71.76 64.797 71.76C67.723 71.76 70.573 71 72.967 69.062C74.867 67.504 75.931 64.882 75.931 61.348C75.931 57.852 74.221 55.838 71.485 54.508C70.345 53.938 69.015 53.558 67.571 53.14C64.797 52.342 63.657 51.506 63.657 50.214C63.657 48.808 65.177 47.82 66.849 47.82C68.635 47.82 70.383 48.542 71.789 49.72L74.753 43.944C72.055 42.462 68.597 41.588 65.747 41.588ZM76.601 42.348V48.656H82.757V71H90.205V48.656H96.361V42.348H76.601ZM99.0668 42.348V71H106.515V42.348H99.0668ZM108.385 42.348L120.431 71H126.207L138.443 42.348H130.349L123.395 59.752L116.479 42.348H108.385ZM45.9012 88.348L34.8812 117H42.7852L44.7612 112.022H55.0212L56.8832 117H64.8252L54.0332 88.348H45.9012ZM49.8912 97.202H49.9672L53.0072 106.322H46.8132L49.8912 97.202ZM67.1527 88.348V117H74.6007V107.5H79.0087C85.5067 107.5 88.9647 104.27 88.9647 97.772C88.9647 91.578 85.0507 88.348 78.7047 88.348H67.1527ZM74.6007 94.352H75.6267C78.7047 94.352 81.2127 94.352 81.2127 98C81.2127 101.306 78.8187 101.496 76.1967 101.496H74.6007V94.352ZM92.2758 88.348V117H99.7238V107.5H104.132C110.63 107.5 114.088 104.27 114.088 97.772C114.088 91.578 110.174 88.348 103.828 88.348H92.2758ZM99.7238 94.352H100.75C103.828 94.352 106.336 94.352 106.336 98C106.336 101.306 103.942 101.496 101.32 101.496H99.7238V94.352Z" fill="#393939"/>
</svg>
